<svg width="24" height="24" viewBox="0 0 24 24" fill="none" xmlns="http://www.w3.org/2000/svg">
<path d="M12.1875 5.625C8.56274 5.625 5.625 8.56274 5.625 12.1875C5.625 15.8123 8.56274 18.75 12.1875 18.75C15.8123 18.75 18.75 15.8123 18.75 12.1875C18.75 8.56274 15.8123 5.625 12.1875 5.625ZM12.1875 16.2891C9.92651 16.2891 8.08594 14.4485 8.08594 12.1875C8.08594 9.92651 9.92651 8.08594 12.1875 8.08594C14.4485 8.08594 16.2891 9.92651 16.2891 12.1875C16.2891 14.4485 14.4485 16.2891 12.1875 16.2891Z" fill="#03EE65"/>
<path d="M18.125 6.75C18.6082 6.75 19 6.35825 19 5.875C19 5.39175 18.6082 5 18.125 5C17.6418 5 17.25 5.39175 17.25 5.875C17.25 6.35825 17.6418 6.75 18.125 6.75Z" fill="#03EE65"/>
<rect x="0.5" y="0.5" width="23" height="23" rx="3.5" stroke="#03EE65"/>
</svg>
