<svg width="43" height="772" viewBox="0 0 43 772" fill="none" xmlns="http://www.w3.org/2000/svg">
<circle cx="21.5" cy="21.5" r="21.5" fill="#807CFA"/>
<circle cx="21.5" cy="254.5" r="21.5" fill="#807CFA"/>
<circle cx="21.5" cy="469.5" r="21.5" fill="#807CFA"/>
<circle cx="21.5" cy="750.5" r="21.5" fill="#807CFA"/>
<line x1="21.5" y1="6" x2="21.5" y2="768" stroke="#807CFA" stroke-width="3"/>
<path d="M19.4 32V13.64H15.08V10.22C16.76 10.004 18.128 9.368 19.184 8.312C19.616 7.88 19.988 7.376 20.3 6.8H24.8V32H19.4Z" fill="white"/>
<path d="M20.1 259.96H30.9V265H13.08C13.08 263.392 13.308 261.928 13.764 260.608C14.22 259.288 14.796 258.196 15.492 257.332C16.212 256.444 17.004 255.64 17.868 254.92C18.756 254.2 19.632 253.564 20.496 253.012C21.384 252.436 22.176 251.896 22.872 251.392C23.592 250.864 24.18 250.276 24.636 249.628C25.092 248.98 25.32 248.284 25.32 247.54C25.32 246.604 24.984 245.836 24.312 245.236C23.64 244.612 22.776 244.3 21.72 244.3C20.448 244.3 19.344 244.816 18.408 245.848C17.976 246.328 17.64 246.832 17.4 247.36L13.08 245.2C13.56 244.072 14.184 243.088 14.952 242.248C16.8 240.256 19.176 239.26 22.08 239.26C24.72 239.26 26.844 240.016 28.452 241.528C30.084 243.016 30.9 244.9 30.9 247.18C30.9 248.524 30.624 249.736 30.072 250.816C29.52 251.872 28.8 252.772 27.912 253.516C27.024 254.26 26.112 254.944 25.176 255.568C24.24 256.192 23.28 256.888 22.296 257.656C21.336 258.4 20.604 259.168 20.1 259.96Z" fill="white"/>
<path d="M12.36 477.58L15.96 473.98C16.392 474.484 16.884 474.94 17.436 475.348C18.708 476.236 20.016 476.68 21.36 476.68C22.728 476.68 23.784 476.392 24.528 475.816C25.296 475.216 25.68 474.484 25.68 473.62C25.68 472.756 25.32 472.036 24.6 471.46C23.904 470.86 22.944 470.56 21.72 470.56H18.84V465.88H21.36C22.416 465.88 23.244 465.616 23.844 465.088C24.468 464.536 24.78 463.84 24.78 463C24.78 462.16 24.468 461.476 23.844 460.948C23.244 460.396 22.416 460.12 21.36 460.12C20.304 460.12 19.212 460.54 18.084 461.38C17.604 461.788 17.196 462.208 16.86 462.64L13.26 459.04C13.932 458.296 14.652 457.672 15.42 457.168C17.316 455.896 19.476 455.26 21.9 455.26C24.348 455.26 26.364 455.968 27.948 457.384C29.556 458.776 30.36 460.408 30.36 462.28C30.36 463.984 29.7 465.4 28.38 466.528C27.732 467.032 27.072 467.416 26.4 467.68C27.312 468.016 28.116 468.46 28.812 469.012C30.444 470.26 31.26 471.916 31.26 473.98C31.26 476.02 30.396 477.796 28.668 479.308C26.94 480.796 24.684 481.54 21.9 481.54C19.212 481.54 16.836 480.88 14.772 479.56C13.836 478.984 13.032 478.324 12.36 477.58Z" fill="white"/>
<path d="M11.54 759.5V753.74L22.52 738.8H28.82V754.46H31.7V759.5H28.82V764H23.42V759.5H11.54ZM17.12 754.46H23.42V745.82L17.12 754.46Z" fill="white"/>
</svg>
