<svg width="244" height="37" viewBox="0 0 244 37" fill="none" xmlns="http://www.w3.org/2000/svg">
<path d="M60.5266 26.4996L50.2649 0.608398H56.6078L62.6922 17.0248C63.0062 17.939 63.2648 18.8711 63.4666 19.816C63.6485 18.8663 63.9075 17.9329 64.2411 17.0248L70.2722 0.608398H76.5648L66.3031 26.4996H60.5266Z" fill="black"/>
<path d="M101.158 12.2712C101.158 13.7567 101.089 14.9383 100.952 15.8161H83.6849C84.0624 17.7064 84.8182 19.2086 85.9521 20.3225C87.1203 21.4031 88.6147 21.9434 90.4353 21.9434C92.7374 21.9434 94.6784 21.0992 96.2583 19.411L99.8141 23.107C97.341 25.7738 94.1976 27.1072 90.384 27.1072C86.502 27.1072 83.4277 25.8752 81.1611 23.4112C78.9281 20.9478 77.8115 17.657 77.8115 13.5388C77.8115 9.35321 78.9451 6.06211 81.2124 3.66548C83.4796 1.23485 86.5369 0.0195312 90.384 0.0195312C93.751 0.0195312 96.4991 1.06609 98.6282 3.15921C100.761 5.21703 101.158 8.25468 101.158 12.2712ZM83.6365 10.8111H96.0037C95.8321 8.92073 95.2138 7.50297 94.1489 6.55779C93.1163 5.57861 91.8626 5.08902 90.3879 5.08902C88.4982 5.08902 86.9696 5.59529 85.8021 6.60784C84.6681 7.62103 83.9463 9.02211 83.6365 10.8111Z" fill="black"/>
<path d="M105.13 36.6578V0.608301H111.035V2.58239C112.644 0.861439 114.784 0.000641667 117.454 0C120.98 0 123.77 1.19831 125.824 3.59494C127.914 5.99156 128.958 9.31636 128.957 13.5693C128.957 17.7216 127.879 21.0127 125.722 23.4427C123.6 25.8726 120.861 27.0876 117.506 27.0876C114.767 27.0876 112.611 26.1935 111.035 24.4052V33.9743L105.13 36.6578ZM116.65 21.508C118.677 21.508 120.239 20.8343 121.338 19.4868C122.472 18.1027 123.039 16.128 123.039 13.5626C123.039 11.0979 122.472 9.14086 121.338 7.69134C120.241 6.24053 118.66 5.51481 116.595 5.51416C114.121 5.51416 112.266 6.37496 111.029 8.09655V18.9256C112.27 20.6472 114.145 21.508 116.652 21.508H116.65Z" fill="black"/>
<path d="M141.329 27.1072C138.425 27.1072 136.057 26.3645 134.225 24.879C132.427 23.3942 131.527 21.2677 131.527 18.4996C131.527 15.6974 132.565 13.5709 134.639 12.1201C136.713 10.6693 139.203 9.94424 142.108 9.94488C144.632 9.94488 146.826 10.4008 148.691 11.3126V9.79088C148.691 6.68586 146.945 5.13334 143.452 5.13334C140.548 5.13334 137.748 6.01082 135.051 7.76578L133.236 3.00621C136.451 1.01705 140.03 0.0224609 143.971 0.0224609C150.99 0.0224609 154.499 3.26288 154.499 9.74372V26.4999H148.691V24.4787C146.826 26.231 144.372 27.1072 141.329 27.1072ZM142.556 21.9646C145.029 21.9646 147.107 21.1038 148.79 19.3822V16.0404C147.21 15.264 145.339 14.8758 143.175 14.8758C141.527 14.8758 140.152 15.1796 139.053 15.7873C137.988 16.3943 137.456 17.2888 137.456 18.4707C137.456 19.5173 137.903 20.3611 138.796 21.0021C139.689 21.6431 140.942 21.964 142.556 21.9646Z" fill="black"/>
<path d="M162.266 36.3171L166.287 26.0348L156.441 0.608398H162.472L168.504 16.4107C168.817 17.2028 169.076 18.0151 169.278 18.842C169.347 18.6052 169.433 18.3521 169.536 18.0826L169.845 17.1711C169.949 16.8336 170.035 16.5804 170.104 16.4117L176.137 0.608398H182.219L168.405 36.3171H162.266Z" fill="black"/>
<path d="M50.0548 13.1744C50.0544 11.0308 49.4589 8.92893 48.334 7.10022C47.2092 5.27151 45.5985 3.78694 43.6793 2.81003C41.7602 1.83311 39.6072 1.40176 37.4573 1.56346C35.3074 1.72517 33.2441 2.47367 31.4946 3.72652C33.575 9.27919 37.7978 20.5703 39.3671 24.7745C42.2846 24.5194 45.0002 23.1869 46.9786 21.0397C48.9569 18.8925 50.0544 16.0863 50.0548 13.1744Z" fill="url(#paint0_linear)"/>
<path d="M30.3067 0.608401H23.9919L34.2081 26.4034H39.9576C39.9576 26.4034 30.3048 0.598776 30.3067 0.608401Z" fill="url(#paint1_linear)"/>
<path d="M11.9966 0.608398L22.8778 26.4034H28.6273C25.0454 17.9603 21.4945 9.20449 18.3104 0.608398H11.9966Z" fill="url(#paint2_linear)"/>
<path d="M0 0.608398L10.8851 26.4034H16.6346C16.6346 26.4034 9.49786 9.20449 6.3148 0.608398H0Z" fill="url(#paint3_linear)"/>
<path d="M193.705 8.34897H191.82V7.03516H197.009V8.34801H195.122V13.6023H193.706L193.705 8.34897Z" fill="black"/>
<path d="M201.393 12.945C201.241 13.0921 201.07 13.2183 200.884 13.3203C200.434 13.5693 199.927 13.6986 199.412 13.6957C199.097 13.6988 198.783 13.64 198.49 13.5227C198.197 13.4053 197.93 13.2318 197.704 13.0119C197.249 12.5677 196.989 11.9618 196.983 11.3275C196.977 10.6932 197.224 10.0823 197.671 9.62933C198.118 9.17636 198.727 8.91836 199.365 8.91211C199.978 8.91313 200.565 9.15561 200.999 9.58643C201.432 10.0173 201.676 10.6013 201.677 11.2106C201.675 11.3454 201.665 11.48 201.649 11.6138L201.63 11.7736H198.281C198.422 12.1962 198.8 12.5706 199.507 12.5706C199.831 12.5787 200.149 12.4905 200.422 12.3174C200.54 12.248 200.646 12.1591 200.734 12.0547L201.393 12.945ZM200.355 10.8342C200.214 10.4117 199.846 10.0373 199.318 10.0373C198.789 10.0373 198.421 10.4126 198.28 10.8342H200.355Z" fill="black"/>
<path d="M203.516 11.2562L201.959 9.00488H203.422L204.299 10.4121H204.337L205.214 9.00488H206.677L205.12 11.2562L206.771 13.6018H205.308L204.34 12.1012H204.302L203.334 13.6018H201.871L203.516 11.2562Z" fill="black"/>
<path d="M207.337 9.00488H208.611V10.6931H210.354V9.00488H211.628V13.6018H210.354V11.8693H208.611V13.6018H207.337V9.00488Z" fill="black"/>
<path d="M215.026 8.91128C215.5 8.92038 215.96 9.06844 216.35 9.33687C216.74 9.60531 217.041 9.98217 217.216 10.4202C217.391 10.8582 217.432 11.3378 217.334 11.7989C217.236 12.26 217.003 12.682 216.664 13.012C216.326 13.342 215.897 13.5653 215.431 13.6538C214.966 13.7423 214.484 13.6922 214.047 13.5097C213.61 13.3271 213.237 13.0203 212.975 12.6278C212.712 12.2352 212.572 11.7744 212.573 11.3031C212.575 10.9858 212.641 10.6721 212.766 10.38C212.89 10.0879 213.072 9.82322 213.3 9.60103C213.528 9.37884 213.797 9.20354 214.094 9.08518C214.39 8.96682 214.706 8.90773 215.026 8.91128ZM216.205 11.3031C216.205 10.5995 215.686 10.0836 215.026 10.0836C214.365 10.0836 213.847 10.5995 213.847 11.3031C213.847 12.0067 214.365 12.5226 215.026 12.5226C215.686 12.5226 216.205 12.0067 216.205 11.3031Z" fill="black"/>
<path d="M217.714 12.4285L217.827 12.4564C217.899 12.4679 217.971 12.4743 218.044 12.4756C218.515 12.4756 218.799 12.1946 218.799 10.3177V9.00488H222.575V13.6018H221.301V10.1772H220.074V10.3177C220.074 12.9916 219.319 13.7413 218.376 13.7413C218.21 13.7455 218.044 13.7234 217.885 13.6759C217.827 13.6544 217.771 13.6293 217.716 13.6008L217.714 12.4285Z" fill="black"/>
<path d="M225.97 8.91128C226.444 8.92038 226.904 9.06844 227.294 9.33687C227.684 9.60531 227.985 9.98217 228.16 10.4202C228.335 10.8582 228.376 11.3378 228.278 11.7989C228.18 12.26 227.947 12.682 227.608 13.012C227.27 13.342 226.841 13.5653 226.375 13.6538C225.91 13.7423 225.428 13.6922 224.991 13.5097C224.554 13.3271 224.181 13.0203 223.919 12.6278C223.656 12.2352 223.516 11.7744 223.517 11.3031C223.519 10.9858 223.585 10.6721 223.71 10.38C223.834 10.0879 224.016 9.82322 224.244 9.60103C224.472 9.37884 224.742 9.20354 225.038 9.08518C225.334 8.96682 225.651 8.90773 225.97 8.91128ZM227.149 11.3031C227.149 10.5995 226.63 10.0836 225.97 10.0836C225.309 10.0836 224.791 10.5995 224.791 11.3031C224.791 12.0067 225.309 12.5226 225.97 12.5226C226.63 12.5226 227.149 12.0067 227.149 11.3031Z" fill="black"/>
<path d="M229.366 9.00488H232.762V10.1772H230.64V13.6018H229.366V9.00488Z" fill="black"/>
<path d="M233.517 9.00488H234.791V11.6315L236.773 9.00488H237.9V13.6018H236.626V10.9742L234.649 13.6018H233.517V9.00488Z" fill="black"/>
<path d="M239.13 9.00488H240.404V11.6315L242.386 9.00488H243.515V13.6018H242.241V10.9742L240.263 13.6018H239.13V9.00488Z" fill="black"/>
<path d="M192.242 18.7266H194.506C195.601 18.7266 196.158 19.2896 196.158 19.9932C196.16 20.1301 196.134 20.266 196.08 20.392C196.027 20.5181 195.947 20.6314 195.846 20.7247C195.76 20.8121 195.657 20.882 195.544 20.9307C195.689 20.9759 195.823 21.0492 195.94 21.1463C196.067 21.2415 196.17 21.3648 196.24 21.5066C196.311 21.6483 196.347 21.8044 196.346 21.9625C196.346 22.7132 195.733 23.3225 194.603 23.3225H192.245L192.242 18.7266ZM194.459 20.4591C194.695 20.4591 194.836 20.3185 194.836 20.1308C194.836 19.9432 194.695 19.8026 194.459 19.8026H193.515V20.4591H194.459ZM194.556 22.2416C194.846 22.2416 195.027 22.0539 195.027 21.8191C195.027 21.5842 194.848 21.3965 194.556 21.3965H193.518V22.2406L194.556 22.2416Z" fill="black"/>
<path d="M198.657 22.1502H198.94C199.092 22.0095 199.22 21.8445 199.317 21.6622C199.506 21.3243 199.695 20.7902 199.695 20.0394V18.7266H203.233V22.1502H203.846V24.3543H202.572V23.3235H199.93V24.3553H198.656L198.657 22.1502ZM201.959 22.1502V19.8989H200.968V20.0394C200.98 20.598 200.867 21.1522 200.638 21.6622C200.553 21.8401 200.441 22.0045 200.308 22.1502H201.959Z" fill="black"/>
<path d="M208.799 22.6657C208.647 22.8128 208.475 22.9391 208.29 23.0411C207.84 23.29 207.333 23.4193 206.818 23.4165C206.502 23.4196 206.189 23.3608 205.896 23.2434C205.603 23.1261 205.336 22.9525 205.11 22.7326C204.885 22.5127 204.705 22.2507 204.581 21.9617C204.457 21.6727 204.392 21.3623 204.389 21.0482C204.386 20.7341 204.445 20.4225 204.563 20.1311C204.681 19.8397 204.855 19.5743 205.077 19.35C205.298 19.1257 205.561 18.947 205.852 18.8239C206.143 18.7008 206.455 18.6359 206.771 18.6328C207.384 18.6338 207.971 18.8763 208.404 19.3071C208.838 19.738 209.082 20.322 209.083 20.9313C209.081 21.0661 209.071 21.2007 209.054 21.3346L209.036 21.4943H205.687C205.828 21.9169 206.205 22.2913 206.913 22.2913C207.237 22.2994 207.555 22.2112 207.828 22.0382C207.946 21.9687 208.051 21.8798 208.14 21.7754L208.799 22.6657ZM207.761 20.5549C207.62 20.1324 207.252 19.758 206.723 19.758C206.195 19.758 205.827 20.1334 205.686 20.5549H207.761Z" fill="black"/>
<path d="M210.026 18.7263H211.3V21.353L213.281 18.7263H214.414V23.3232H213.14V20.6956L211.157 23.3232H210.026V18.7263ZM211.676 16.7051C211.676 16.8544 211.736 16.9976 211.842 17.1032C211.948 17.2088 212.092 17.2681 212.242 17.2681C212.393 17.2681 212.537 17.2088 212.643 17.1032C212.749 16.9976 212.809 16.8544 212.809 16.7051H213.753C213.753 17.502 213.149 18.1123 212.243 18.1123C211.338 18.1123 210.734 17.503 210.734 16.7051H211.676Z" fill="black"/>
<path d="M219.742 22.4779C219.612 22.6589 219.453 22.8173 219.271 22.9467C218.912 23.2093 218.488 23.368 218.044 23.4051C217.601 23.4421 217.156 23.3561 216.758 23.1566C216.361 22.9571 216.027 22.6519 215.794 22.275C215.561 21.8981 215.437 21.4642 215.437 21.0217C215.437 20.5791 215.561 20.1453 215.794 19.7684C216.027 19.3914 216.361 19.0862 216.758 18.8867C217.156 18.6872 217.601 18.6012 218.044 18.6383C218.488 18.6754 218.912 18.834 219.271 19.0967C219.453 19.2261 219.612 19.3844 219.742 19.5654L218.941 20.3624C218.852 20.257 218.75 20.1626 218.639 20.0813C218.398 19.9033 218.108 19.805 217.808 19.8003C217.148 19.8003 216.629 20.3162 216.629 21.0197C216.629 21.7233 217.148 22.2392 217.808 22.2392C218.108 22.2345 218.398 22.1361 218.639 21.9582C218.75 21.8769 218.852 21.7825 218.941 21.6771L219.742 22.4779Z" fill="black"/>
<path d="M221.535 19.8989H220.072V18.7266H224.271V19.8989H222.808V23.3235H221.534L221.535 19.8989Z" fill="black"/>
<path d="M225.025 18.7266H227.289C228.384 18.7266 228.941 19.2896 228.941 19.9932C228.943 20.1301 228.917 20.266 228.863 20.392C228.81 20.5181 228.73 20.6314 228.629 20.7247C228.543 20.8121 228.44 20.882 228.327 20.9307C228.472 20.9759 228.607 21.0492 228.723 21.1463C228.85 21.2415 228.953 21.3648 229.023 21.5066C229.094 21.6483 229.13 21.8044 229.129 21.9625C229.129 22.7132 228.516 23.3225 227.386 23.3225H225.025V18.7266ZM227.242 20.4591C227.478 20.4591 227.619 20.3185 227.619 20.1308C227.619 19.9432 227.478 19.8026 227.242 19.8026H226.298V20.4591H227.242ZM227.339 22.2416C227.629 22.2416 227.81 22.0539 227.81 21.8191C227.81 21.5842 227.631 21.3965 227.339 21.3965H226.301V22.2406L227.339 22.2416Z" fill="black"/>
<path d="M230.073 18.7266H231.347V21.3532L233.328 18.7266H234.461V23.3235H233.186V20.6958L231.205 23.3235H230.073L230.073 18.7266Z" fill="black"/>
<path d="M235.687 18.7266H236.961V21.3532L238.942 18.7266H240.075V23.3235H238.801V20.6958L236.818 23.3235H235.687V18.7266Z" fill="black"/>
<defs>
<linearGradient id="paint0_linear" x1="40.7747" y1="24.7755" x2="40.7747" y2="1.52913" gradientUnits="userSpaceOnUse">
<stop stop-color="#A31FED"/>
<stop offset="1" stop-color="#00FF66"/>
</linearGradient>
<linearGradient id="paint1_linear" x1="31.9747" y1="26.4034" x2="31.9747" y2="0.608402" gradientUnits="userSpaceOnUse">
<stop stop-color="#771BBF"/>
<stop offset="1" stop-color="#A31FED"/>
</linearGradient>
<linearGradient id="paint2_linear" x1="8300.41" y1="13723.5" x2="8300.41" y2="6810.49" gradientUnits="userSpaceOnUse">
<stop stop-color="#771BBF"/>
<stop offset="1" stop-color="#A31FED"/>
</linearGradient>
<linearGradient id="paint3_linear" x1="6228.98" y1="13723.5" x2="6228.98" y2="6810.49" gradientUnits="userSpaceOnUse">
<stop stop-color="#771BBF"/>
<stop offset="1" stop-color="#A31FED"/>
</linearGradient>
</defs>
</svg>
