<svg width="429" height="33" viewBox="0 0 429 33" fill="none" xmlns="http://www.w3.org/2000/svg">
<path d="M56.4295 18.7417L57.2983 19.0004C57.2404 19.2447 57.1535 19.4459 57.0232 19.604C56.8929 19.7621 56.7481 19.8915 56.5598 19.9633C56.3716 20.0496 56.1399 20.0927 55.8503 20.0927C55.5028 20.0927 55.2276 20.0496 54.9959 19.949C54.7787 19.8484 54.5905 19.6759 54.4312 19.4172C54.2719 19.1728 54.1851 18.8423 54.1851 18.4542C54.1851 17.9368 54.3299 17.5343 54.605 17.2469C54.8801 16.9594 55.2856 16.8301 55.7924 16.8301C56.1978 16.8301 56.5019 16.9163 56.7336 17.0744C56.9653 17.2325 57.139 17.4769 57.2404 17.8218L56.3716 18.0086C56.3426 17.908 56.3137 17.8362 56.2702 17.7931C56.2123 17.7212 56.1544 17.6637 56.0675 17.6206C55.9806 17.5775 55.8937 17.5631 55.8068 17.5631C55.5896 17.5631 55.4159 17.6493 55.3 17.8362C55.2132 17.9655 55.1697 18.1811 55.1697 18.4542C55.1697 18.7991 55.2276 19.0435 55.329 19.1728C55.4304 19.3022 55.5896 19.3741 55.7779 19.3741C55.9661 19.3741 56.1109 19.3166 56.1978 19.216C56.3137 19.0866 56.3861 18.9429 56.4295 18.7417Z" fill="#74698C"/>
<path d="M57.646 18.4547C57.646 17.9372 57.7908 17.5348 58.0804 17.2473C58.37 16.9599 58.7755 16.8162 59.2968 16.8162C59.8325 16.8162 60.238 16.9599 60.5276 17.233C60.8172 17.5204 60.962 17.9085 60.962 18.4259C60.962 18.7996 60.9041 19.1014 60.7738 19.3314C60.6434 19.5614 60.4697 19.7482 60.2235 19.8776C59.9918 20.0069 59.6877 20.0788 59.3402 20.0788C58.9782 20.0788 58.6886 20.0213 58.4424 19.9063C58.2107 19.7913 58.0225 19.6189 57.8632 19.3602C57.7039 19.1014 57.646 18.8284 57.646 18.4547ZM58.6307 18.4547C58.6307 18.7709 58.6886 19.0008 58.8044 19.1446C58.9203 19.2883 59.0796 19.3602 59.2968 19.3602C59.514 19.3602 59.6732 19.2883 59.7891 19.1589C59.9049 19.0152 59.9629 18.7709 59.9629 18.4259C59.9629 18.1241 59.9049 17.9085 59.7746 17.7791C59.6588 17.6354 59.485 17.5779 59.2823 17.5779C59.0796 17.5779 58.9203 17.6498 58.8044 17.7935C58.6886 17.9085 58.6307 18.1385 58.6307 18.4547Z" fill="#74698C"/>
<path d="M61.4687 16.8738H62.7574L63.2497 18.7997L63.7421 16.8738H65.0308V20.0358H64.2199V17.6212L63.5973 20.0358H62.8732L62.2506 17.6212V20.0358H61.4397V16.8738H61.4687Z" fill="#74698C"/>
<path d="M65.668 16.8738H67.3043C67.6663 16.8738 67.9269 16.96 68.1007 17.1325C68.2744 17.305 68.3613 17.5349 68.3613 17.8511C68.3613 18.1673 68.26 18.426 68.0717 18.5985C67.8835 18.7854 67.5794 18.8716 67.1884 18.8716H66.6526V20.0502H65.668V16.8738ZM66.6526 18.2248H66.8988C67.0871 18.2248 67.2174 18.1961 67.3043 18.1242C67.3767 18.0524 67.4201 17.9805 67.4201 17.8799C67.4201 17.7793 67.3911 17.693 67.3187 17.6212C67.2463 17.5493 67.1305 17.5206 66.9422 17.5206H66.6671L66.6526 18.2248Z" fill="#74698C"/>
<path d="M68.8826 16.8738H69.8672V19.2597H71.4021V20.0358H68.8826V16.8738Z" fill="#74698C"/>
<path d="M71.8945 16.8738H72.8792V20.0358H71.8945V16.8738Z" fill="#74698C"/>
<path d="M75.5434 19.504H74.4284L74.2692 20.0214H73.27L74.4719 16.8594H75.5434L76.7453 20.0214H75.7172L75.5434 19.504ZM75.3407 18.8285L74.9932 17.693L74.6456 18.8285H75.3407Z" fill="#74698C"/>
<path d="M77.0496 16.8738H77.9618L79.1637 18.6273V16.8738H80.0904V20.0358H79.1637L77.9763 18.2967V20.0358H77.0496V16.8738Z" fill="#74698C"/>
<path d="M80.5248 16.8738H83.5222V17.6499H82.5231V20.0358H81.5384V17.6499H80.5393L80.5248 16.8738Z" fill="#74698C"/>
<path fill-rule="evenodd" clip-rule="evenodd" d="M40.9212 0L46.5106 12.3606C46.5106 12.3606 49.4067 18.7565 50.3334 20.7975L11.338 33L0 2.29965L40.9212 0ZM39.6464 8.93266C41.355 8.93266 42.7451 7.6391 42.7451 6.02935C42.7451 4.41959 41.355 3.12604 39.6464 3.12604C37.9377 3.12604 36.5476 4.41959 36.5476 6.02935C36.5476 7.62473 37.9377 8.93266 39.6464 8.93266ZM37.1123 10.1831H42.1804V23.3342H37.1123V10.1831ZM34.6072 14.0206C34.6507 14.035 34.6796 14.0206 34.6796 13.9775V10.643C34.6796 10.5999 34.6507 10.5568 34.6072 10.5281C34.6072 10.5281 33.9411 10.0969 31.9139 9.98189C31.8125 9.9244 30.0315 9.91002 29.5536 9.98189C22.1687 10.5712 21.8936 15.8747 21.8936 16.1047V17.3983C21.8936 17.5564 21.8936 22.9749 29.5536 23.4492C30.1682 23.4961 31.2555 23.4665 31.7131 23.454H31.7132H31.7132H31.7132C31.8162 23.4512 31.8873 23.4492 31.9139 23.4492C33.6805 23.4492 34.8968 22.9174 34.8968 22.9174C34.9403 22.903 34.9692 22.8599 34.9692 22.8168V19.6979C34.9692 19.6548 34.9403 19.6404 34.9113 19.6692C34.9113 19.6692 34.3611 20.1003 31.9573 20.3447C31.2768 20.4165 30.9437 20.3878 30.6976 20.3447C27.2802 19.7698 27.1209 17.2976 27.1209 17.2976C27.1209 17.2739 27.1165 17.2415 27.1126 17.2123C27.1094 17.1885 27.1064 17.1668 27.1064 17.1539V16.2053C27.1064 16.1622 27.1065 16.0903 27.1209 16.0616C27.1209 16.0616 27.3526 13.4026 30.6976 13.1152H31.9573C33.4198 13.302 34.6072 14.0206 34.6072 14.0206ZM7.89114 23.363C7.8477 23.363 7.81874 23.3342 7.81874 23.2911V10.255C7.81874 10.2118 7.8477 10.1831 7.89114 10.1831H14.2914C15.9132 10.1112 20.8655 10.5568 20.8655 14.7105C20.8655 19.9566 12.9737 19.3961 12.9737 19.3961C12.9303 19.3961 12.9013 19.4248 12.9013 19.4679V23.2911C12.9013 23.3342 12.8724 23.363 12.8289 23.363H7.89114ZM12.8144 13.0433V16.4784H14.1756C14.1756 16.4784 15.696 16.4065 15.9277 15.0124C15.9567 14.9836 15.9567 14.3943 15.9277 14.3081C15.7829 13.1152 14.0308 13.0433 14.0308 13.0433H12.8144Z" fill="#74698C"/>
<path d="M54.0837 4.84375H58.8188C59.76 4.84375 60.513 4.97311 61.0777 5.21744C61.6569 5.47615 62.1348 5.83547 62.4968 6.2954C62.8733 6.76971 63.1484 7.31588 63.3077 7.93391C63.4814 8.55194 63.5683 9.21309 63.5683 9.91736C63.5683 11.0097 63.438 11.8577 63.1918 12.4613C62.9457 13.065 62.5981 13.5681 62.1492 13.9849C61.7004 14.3873 61.2225 14.6604 60.7157 14.8041C60.0206 14.991 59.3835 15.0772 58.8188 15.0772H54.0837V4.84375ZM57.2694 7.15777V12.7488H58.0513C58.7174 12.7488 59.1953 12.6769 59.4704 12.5332C59.7455 12.3895 59.9772 12.1308 60.1365 11.7715C60.2958 11.4121 60.3827 10.8085 60.3827 9.98922C60.3827 8.89689 60.2089 8.16387 59.8469 7.76143C59.4849 7.35899 58.9057 7.15777 58.0658 7.15777H57.2694Z" fill="#74698C"/>
<path d="M64.4517 11.6994L67.4925 11.5126C67.5649 12.0012 67.6952 12.3749 67.898 12.6337C68.231 13.0505 68.6944 13.2517 69.3025 13.2517C69.7514 13.2517 70.1134 13.1511 70.3596 12.9355C70.6058 12.7199 70.7361 12.4756 70.7361 12.2025C70.7361 11.9438 70.6202 11.6994 70.3886 11.4838C70.1569 11.2682 69.6066 11.0814 68.7523 10.8945C67.3477 10.5783 66.3631 10.1615 65.7549 9.64411C65.1467 9.12669 64.8571 8.46554 64.8571 7.66066C64.8571 7.12886 65.0164 6.64019 65.3205 6.16588C65.6246 5.69158 66.0879 5.33226 66.7106 5.05918C67.3332 4.78609 68.1731 4.65674 69.2446 4.65674C70.5623 4.65674 71.5759 4.90108 72.2565 5.38975C72.9516 5.87843 73.357 6.65456 73.4873 7.71815L70.4754 7.89062C70.3886 7.43069 70.2293 7.10012 69.9686 6.88453C69.708 6.66893 69.3605 6.56832 68.9116 6.56832C68.5351 6.56832 68.26 6.64019 68.0717 6.79829C67.8835 6.95639 67.7966 7.14324 67.7966 7.3732C67.7966 7.5313 67.869 7.6894 68.0283 7.81876C68.1731 7.94811 68.5351 8.07747 69.0998 8.19245C70.4899 8.49428 71.489 8.79611 72.0972 9.09794C72.7054 9.39977 73.1398 9.78783 73.4149 10.2334C73.69 10.6789 73.8204 11.1964 73.8204 11.7569C73.8204 12.4181 73.6321 13.0217 73.2701 13.5679C72.9081 14.1284 72.3868 14.5452 71.7352 14.8327C71.0836 15.1202 70.2438 15.2639 69.2446 15.2639C67.4925 15.2639 66.2762 14.9333 65.5956 14.2578C64.9295 13.5823 64.553 12.7343 64.4517 11.6994Z" fill="#74698C"/>
<path d="M74.6313 11.6994L77.6722 11.5126C77.7446 12.0012 77.8749 12.3749 78.0776 12.6337C78.4107 13.0505 78.8741 13.2517 79.4822 13.2517C79.9311 13.2517 80.2931 13.1511 80.5393 12.9355C80.7855 12.7199 80.9158 12.4756 80.9158 12.2025C80.9158 11.9438 80.7999 11.6994 80.5683 11.4838C80.3366 11.2682 79.7863 11.0814 78.932 10.8945C77.5274 10.5783 76.5427 10.1615 75.9346 9.64411C75.3409 9.12669 75.0368 8.46554 75.0368 7.66066C75.0368 7.12886 75.1961 6.64019 75.5002 6.16588C75.8042 5.69158 76.2676 5.33226 76.8903 5.05918C77.5129 4.78609 78.3528 4.65674 79.4243 4.65674C80.742 4.65674 81.7556 4.90108 82.4362 5.38975C83.1313 5.87843 83.5367 6.65456 83.667 7.71815L80.6551 7.89062C80.5683 7.43069 80.409 7.10012 80.1483 6.88453C79.8877 6.66893 79.5402 6.56832 79.0913 6.56832C78.7148 6.56832 78.4397 6.64019 78.2514 6.79829C78.0632 6.95639 77.9763 7.14324 77.9763 7.3732C77.9763 7.5313 78.0487 7.6894 78.208 7.81876C78.3528 7.94811 78.7148 8.07747 79.2795 8.19245C80.6696 8.49428 81.6688 8.79611 82.2769 9.09794C82.8851 9.39977 83.3195 9.78783 83.5946 10.2334C83.8697 10.6789 84.0001 11.1964 84.0001 11.7569C84.0001 12.4181 83.8118 13.0217 83.4498 13.5679C83.0878 14.1284 82.5665 14.5452 81.9149 14.8327C81.2633 15.1202 80.4234 15.2639 79.4243 15.2639C77.6722 15.2639 76.4559 14.9333 75.7753 14.2578C75.0947 13.5823 74.7182 12.7343 74.6313 11.6994Z" fill="#74698C"/>
<path d="M154.355 17.6082L150.605 27.9635L150.211 25.8682C149.263 23.2895 147.25 20.5898 144.882 19.5019L148.316 32.7986H152.382L158.421 17.6484H154.355V17.6082Z" fill="#74698C"/>
<path d="M157.553 32.7986L159.961 17.6082H163.789L161.421 32.7986H157.553Z" fill="#74698C"/>
<path d="M175.355 17.9706C174.605 17.6483 173.382 17.3259 171.921 17.3259C168.132 17.3259 165.447 19.3809 165.447 22.3223C165.408 24.4981 167.342 25.7069 168.803 26.4322C170.303 27.1574 170.816 27.6409 170.816 28.3259C170.816 29.3333 169.632 29.8168 168.526 29.8168C166.987 29.8168 166.158 29.575 164.895 29.0109L164.382 28.7692L163.829 32.1538C164.737 32.5567 166.395 32.9596 168.092 32.9596C172.118 32.9596 174.763 30.9047 174.763 27.7618C174.763 26.0292 173.737 24.6996 171.526 23.6519C170.184 22.967 169.355 22.4834 169.355 21.7582C169.355 21.1135 170.066 20.4688 171.566 20.4688C172.829 20.4285 173.737 20.7508 174.447 21.0329L174.803 21.1941L175.355 17.9706Z" fill="#74698C"/>
<path d="M185.184 17.6082H182.224C181.316 17.6082 180.605 17.8902 180.211 18.8572L174.526 32.7583H178.553C178.553 32.7583 179.224 30.9049 179.342 30.4616C179.776 30.4616 183.684 30.4616 184.276 30.4616C184.395 30.9854 184.75 32.718 184.75 32.718H188.303L185.184 17.6082ZM180.447 27.3994C180.763 26.5129 181.987 23.1686 181.987 23.1686C181.947 23.2089 182.303 22.2821 182.5 21.718L182.737 23.0074C182.737 23.0074 183.487 26.6338 183.645 27.3994C183.053 27.3994 181.197 27.3994 180.447 27.3994Z" fill="#74698C"/>
<path d="M147.092 17.6082H140.895L140.855 17.8499C145.671 19.1393 148.868 22.2419 150.171 25.8682L148.829 18.8975C148.592 17.9305 147.921 17.6484 147.092 17.6082Z" fill="#74698C"/>
<path d="M129.289 13.9413H126.842L124 0.926622L126.724 0.483398L128.658 10.6372L133.553 0.604278H136.158L129.289 13.9413Z" fill="#74698C"/>
<path d="M142 9.71053H136.158C136 11.5237 136.829 12.2893 138.211 12.2893C139.395 12.2893 140.421 11.8461 141.526 11.1208V12.934C140.461 13.619 139.197 14.0622 137.737 14.0622C135.211 14.0622 133.513 12.5713 134.026 9.22701C134.5 6.20503 136.513 4.39185 138.921 4.39185C141.645 4.39185 142.553 6.48708 142.158 9.10613C142.079 9.34789 142.039 9.54936 142 9.71053ZM138.566 6.00357C137.658 6.00357 136.829 6.72884 136.434 8.25998H140.066C140.105 6.80943 139.671 6.00357 138.566 6.00357Z" fill="#74698C"/>
<path d="M145.829 8.54204L145.039 13.8607H142.789L144.171 4.55303H146.105V6.40651C146.855 5.3186 147.921 4.43215 149.342 4.35156V6.64827C147.882 6.80944 146.618 7.57501 145.829 8.54204Z" fill="#74698C"/>
<path d="M149.303 13.901L150.684 4.59331H152.934L151.553 13.901H149.303ZM152.066 3.02188C151.316 3.02188 150.803 2.49807 150.921 1.7325C151.039 0.926642 151.711 0.402832 152.5 0.402832C153.211 0.402832 153.724 0.926642 153.605 1.7325C153.487 2.49807 152.816 3.02188 152.066 3.02188Z" fill="#74698C"/>
<path d="M159.211 2.05491C158.421 2.05491 157.987 2.41754 157.829 3.2234L157.632 4.59337H159.368V6.48714H157.355L156.25 13.9011H154L155.105 6.48714H153.803L154.079 4.59337H155.382L155.618 2.98165C155.934 0.926701 157.316 0.161133 159.211 0.161133C159.605 0.161133 159.921 0.201426 160.118 0.241719V2.13549C159.921 2.0952 159.605 2.05491 159.211 2.05491Z" fill="#74698C"/>
<path d="M159.25 13.901L160.632 4.59331H162.882L161.5 13.901H159.25ZM162.013 3.02188C161.263 3.02188 160.75 2.49807 160.868 1.7325C160.987 0.926642 161.658 0.402832 162.447 0.402832C163.197 0.402832 163.711 0.966935 163.592 1.7325C163.434 2.49807 162.763 3.02188 162.013 3.02188Z" fill="#74698C"/>
<path d="M171.684 9.71053H165.842C165.684 11.5237 166.513 12.2893 167.895 12.2893C169.079 12.2893 170.105 11.8461 171.211 11.1208V12.934C170.145 13.619 168.882 14.0622 167.421 14.0622C164.895 14.0622 163.197 12.5713 163.711 9.22701C164.184 6.20503 166.197 4.39185 168.605 4.39185C171.329 4.39185 172.237 6.48708 171.842 9.10613C171.763 9.34789 171.684 9.54936 171.684 9.71053ZM168.25 6.00357C167.342 6.00357 166.513 6.72884 166.118 8.25998H169.75C169.789 6.80943 169.316 6.00357 168.25 6.00357Z" fill="#74698C"/>
<path d="M178.355 13.9011V12.6117C177.605 13.4176 176.618 14.1026 175.355 14.1026C173.461 14.1026 172.158 12.652 172.632 9.50916C173.145 6.04396 175.237 4.51282 177.368 4.51282C178.237 4.51282 178.908 4.67399 179.421 4.87546L180.092 0.40293L182.421 0L180.329 13.9011H178.355ZM179.145 6.76923C178.632 6.48718 178.197 6.3663 177.447 6.3663C176.263 6.3663 175.237 7.33333 174.921 9.38828C174.645 11.2015 175.276 12.0476 176.263 12.0476C177.092 12.0476 177.803 11.5641 178.513 10.7582L179.145 6.76923Z" fill="#74698C"/>
<path d="M187.237 13.9816C186.171 13.9816 185.303 13.8204 184.474 13.4981L185.974 3.62629L187.71 3.34424L187.079 7.65559C187.592 7.17208 188.303 6.72885 189.171 6.72885C190.632 6.72885 191.618 7.81677 191.263 10.1941C190.868 12.7728 189.289 13.9816 187.237 13.9816ZM188.5 8.25999C187.947 8.25999 187.355 8.66292 186.842 9.18673L186.368 12.3699C186.724 12.4908 186.921 12.5713 187.434 12.5713C188.5 12.5713 189.289 11.8864 189.526 10.3149C189.724 8.90468 189.289 8.25999 188.5 8.25999Z" fill="#74698C"/>
<path d="M195.29 14.2638C194.421 15.9964 193.553 16.5202 192.211 16.5202C191.895 16.5202 191.737 16.4799 191.579 16.4396V14.9891C191.816 15.0294 192.053 15.11 192.368 15.11C192.882 15.11 193.316 14.8682 193.592 14.3847L193.829 13.9012L192.368 6.97076L194.184 6.729L195.013 11.7253L197.303 6.80959H199L195.29 14.2638Z" fill="#74698C"/>
<path fill-rule="evenodd" clip-rule="evenodd" d="M308.58 13.7507C308.58 12.9937 309.18 12.3562 309.94 12.3562C310.7 12.3562 311.3 12.9937 311.3 13.7507C311.3 14.5078 310.7 15.1453 309.94 15.1453C309.18 15.1851 308.58 14.5476 308.58 13.7507ZM309.9 14.8664C310.46 14.8664 310.94 14.3882 310.94 13.7906C310.94 13.1929 310.46 12.7148 309.9 12.7148C309.34 12.7148 308.86 13.1929 308.86 13.7906C308.86 14.3882 309.34 14.8664 309.9 14.8664ZM309.74 14.3882H309.46V13.1531H309.98C310.1 13.1531 310.22 13.1531 310.3 13.2328C310.42 13.3125 310.46 13.432 310.46 13.5515C310.46 13.7109 310.38 13.8304 310.26 13.8703L310.5 14.4281H310.1L309.9 13.95H309.7V14.3882H309.74ZM309.74 13.671H309.9C309.98 13.671 310.02 13.671 310.06 13.6312C310.1 13.5914 310.14 13.5515 310.14 13.4718C310.14 13.432 310.1 13.3523 310.06 13.3523C310.02 13.3125 309.94 13.3125 309.9 13.3125H309.74V13.671Z" fill="#74698C"/>
<path fill-rule="evenodd" clip-rule="evenodd" d="M289.18 4.30776L288.82 6.73823C288.02 6.29995 287.42 6.14058 286.78 6.14058C285.1 6.14058 283.9 7.85386 283.9 10.2843C283.9 11.9578 284.7 12.9937 286.02 12.9937C286.58 12.9937 287.18 12.7945 287.94 12.4359L287.54 14.9859C286.7 15.225 286.18 15.3046 285.54 15.3046C283.1 15.3046 281.58 13.4718 281.58 10.5234C281.58 6.53901 283.66 3.78979 286.7 3.78979C287.1 3.78979 287.42 3.82964 287.74 3.90933L288.7 4.14839C288.9 4.22808 288.98 4.22808 289.18 4.30776Z" fill="#74698C"/>
<path fill-rule="evenodd" clip-rule="evenodd" d="M281.62 5.98125C281.54 5.94141 281.46 5.94141 281.38 5.94141C280.66 5.94141 280.22 6.33984 279.5 7.41562L279.7 6.06094H277.7L276.3 15.0656H278.58C279.42 9.52734 279.62 8.61094 280.7 8.61094C280.78 8.61094 280.78 8.61094 280.86 8.61094C281.06 7.53516 281.34 6.73828 281.74 5.98125H281.62Z" fill="#74698C"/>
<path fill-rule="evenodd" clip-rule="evenodd" d="M268.06 14.9461C267.46 15.1454 266.94 15.2649 266.42 15.2649C265.26 15.2649 264.62 14.5875 264.62 13.2727C264.62 13.0336 264.66 12.7547 264.7 12.436L264.86 11.5594L264.98 10.8422L265.98 4.7063H268.22L267.94 6.02114H269.1L268.78 8.21255H267.62L267.02 11.9579C266.98 12.1172 266.98 12.2368 266.98 12.3165C266.98 12.7946 267.22 12.9938 267.74 12.9938C268.02 12.9938 268.18 12.954 268.34 12.9141L268.06 14.9461Z" fill="#74698C"/>
<path fill-rule="evenodd" clip-rule="evenodd" d="M259.14 8.88977C259.14 10.0452 259.66 10.8023 260.86 11.3999C261.78 11.8382 261.94 11.9976 261.94 12.396C261.94 12.9538 261.54 13.2327 260.66 13.2327C259.98 13.2327 259.38 13.1132 258.62 12.8741L258.3 14.946L258.42 14.9859L258.82 15.0656C258.98 15.1054 259.14 15.1452 259.42 15.1452C259.94 15.1851 260.38 15.2249 260.66 15.2249C263.06 15.2249 264.14 14.2687 264.14 12.2366C264.14 11.0015 263.7 10.2843 262.54 9.72649C261.58 9.28821 261.5 9.16868 261.5 8.7304C261.5 8.25227 261.86 8.01321 262.62 8.01321C263.06 8.01321 263.66 8.0929 264.26 8.17259L264.58 6.10071C263.98 5.98118 263.1 5.90149 262.58 5.90149C259.98 5.86165 259.1 7.21634 259.14 8.88977Z" fill="#74698C"/>
<path fill-rule="evenodd" clip-rule="evenodd" d="M307.26 15.0656H305.1L305.22 14.1891C304.62 14.8664 303.94 15.1852 303.14 15.1852C301.46 15.1852 300.38 13.7109 300.38 11.4398C300.38 8.45156 302.06 5.90156 304.06 5.90156C304.94 5.90156 305.58 6.3 306.22 7.13672L306.7 3.94922H308.94L307.26 15.0656ZM303.9 12.9539C304.98 12.9539 305.7 11.7188 305.7 9.92578C305.7 8.77031 305.26 8.13281 304.5 8.13281C303.46 8.13281 302.74 9.40781 302.74 11.1609C302.74 12.3164 303.14 12.9539 303.9 12.9539Z" fill="#74698C"/>
<path fill-rule="evenodd" clip-rule="evenodd" d="M275.26 14.8664C274.5 15.1054 273.74 15.225 272.94 15.225C270.42 15.225 269.1 13.8304 269.1 11.1609C269.1 8.05308 270.78 5.78198 273.06 5.78198C274.94 5.78198 276.1 7.05698 276.1 9.08901C276.1 9.72651 276.02 10.4039 275.82 11.3203H271.26C271.22 11.4796 271.22 11.5195 271.22 11.5992C271.22 12.675 271.9 13.1929 273.22 13.1929C274.02 13.1929 274.74 12.9937 275.58 12.6351L275.26 14.8664ZM273.98 9.48745C274.02 9.28823 274.02 9.12886 274.02 9.04917C274.02 8.33198 273.62 7.8937 272.94 7.8937C272.22 7.8937 271.7 8.45151 271.5 9.5273H273.98V9.48745Z" fill="#74698C"/>
<path fill-rule="evenodd" clip-rule="evenodd" d="M250.02 15.0656H247.78L249.06 6.53901L246.14 15.0656H244.62L244.42 6.57886L243.06 15.0656H240.94L242.7 3.98901H245.94L246.06 10.8421L248.26 3.98901H251.78L250.02 15.0656Z" fill="#74698C"/>
<path fill-rule="evenodd" clip-rule="evenodd" d="M255.86 11.0413C255.62 11.0014 255.5 11.0014 255.34 11.0014C254.06 11.0014 253.42 11.4795 253.42 12.3561C253.42 12.9139 253.74 13.2725 254.26 13.2725C255.14 13.3124 255.82 12.3561 255.86 11.0413ZM257.5 15.0655H255.62L255.66 14.1092C255.1 14.8663 254.34 15.185 253.26 15.185C252.02 15.185 251.18 14.1889 251.18 12.7147C251.18 10.5233 252.66 9.24829 255.18 9.24829C255.46 9.24829 255.78 9.28813 256.1 9.32798C256.18 9.00923 256.18 8.8897 256.18 8.73032C256.18 8.13267 255.78 7.8936 254.74 7.8936C254.1 7.8936 253.38 8.01313 252.86 8.17251L252.58 8.29204L252.38 8.37173L252.7 6.3397C253.82 5.9811 254.58 5.86157 255.42 5.86157C257.38 5.86157 258.38 6.77798 258.38 8.49126C258.38 8.92954 258.34 9.24829 258.18 10.2842L257.7 13.4717L257.62 14.0295L257.58 14.5077L257.54 14.8264L257.5 15.0655Z" fill="#74698C"/>
<path fill-rule="evenodd" clip-rule="evenodd" d="M293.1 11.0413C292.86 11.0015 292.74 11.0015 292.58 11.0015C291.3 11.0015 290.62 11.4796 290.62 12.3562C290.62 12.914 290.94 13.2726 291.46 13.2726C292.38 13.3124 293.06 12.3562 293.1 11.0413ZM294.74 15.0655H292.86L292.9 14.1093C292.34 14.8663 291.58 15.1851 290.5 15.1851C289.26 15.1851 288.42 14.189 288.42 12.7147C288.42 10.5233 289.9 9.24834 292.42 9.24834C292.66 9.24834 293.02 9.28818 293.34 9.32803C293.42 9.00928 293.42 8.88975 293.42 8.73037C293.42 8.13271 293.02 7.89365 291.98 7.89365C291.34 7.89365 290.62 8.01318 290.1 8.17256L289.78 8.25225L289.58 8.33193L289.9 6.2999C291.02 5.94131 291.78 5.82178 292.62 5.82178C294.58 5.82178 295.58 6.73818 295.58 8.45146C295.58 8.88975 295.54 9.2085 295.38 10.2444L294.9 13.4319L294.82 13.9897L294.74 14.428L294.7 14.7468L294.74 15.0655Z" fill="#74698C"/>
<path fill-rule="evenodd" clip-rule="evenodd" d="M301.06 5.98125C300.98 5.94141 300.9 5.94141 300.82 5.94141C300.1 5.94141 299.66 6.33984 298.94 7.41562L299.14 6.06094H297.1L295.7 15.0656H297.98C298.82 9.52734 299.02 8.61094 300.1 8.61094C300.18 8.61094 300.18 8.61094 300.26 8.61094C300.46 7.53516 300.74 6.73828 301.14 5.98125H301.06Z" fill="#74698C"/>
<path fill-rule="evenodd" clip-rule="evenodd" d="M291.54 23.8312C291.54 25.8632 290.9 27.0983 289.9 27.0983C289.18 27.1382 288.74 26.3015 288.74 25.1062C288.74 23.6718 289.38 22.0382 290.42 22.0382C291.26 21.9983 291.54 22.8749 291.54 23.8312ZM293.78 23.8312C293.78 21.5601 292.66 19.7671 290.54 19.7671C288.1 19.7671 286.5 21.9187 286.5 25.0663C286.5 27.3374 287.46 29.2101 289.74 29.2101C292.1 29.2499 293.78 27.6163 293.78 23.8312Z" fill="#74698C"/>
<path fill-rule="evenodd" clip-rule="evenodd" d="M287.26 18.2133L286.9 20.6438C286.14 20.2055 285.62 20.0461 285.02 20.0461C283.46 20.0461 282.34 21.7594 282.34 24.1898C282.34 25.8633 283.06 26.8992 284.3 26.8992C284.82 26.8992 285.42 26.7 286.1 26.3414L285.74 28.8914C284.98 29.1305 284.46 29.2102 283.86 29.2102C281.58 29.2102 280.14 27.3773 280.14 24.4289C280.14 20.4445 282.1 17.6953 284.94 17.6953C285.3 17.6953 285.62 17.7352 285.9 17.8148L286.78 18.0539C286.98 18.0938 287.06 18.1336 287.26 18.2133Z" fill="#74698C"/>
<path fill-rule="evenodd" clip-rule="evenodd" d="M273.22 19.8467C273.14 19.8069 273.06 19.8069 272.98 19.8069C272.3 19.8069 271.9 20.2053 271.22 21.2811L271.42 19.9264H269.5L268.22 28.9311H270.34C271.14 23.4327 271.34 22.4764 272.34 22.4764C272.42 22.4764 272.42 22.4764 272.5 22.5163C272.7 21.4405 272.94 20.6436 273.3 19.8866L273.22 19.8467Z" fill="#74698C"/>
<path fill-rule="evenodd" clip-rule="evenodd" d="M300.9 28.8515H298.9L299.02 27.9749C298.46 28.6523 297.82 28.971 297.06 28.971C295.54 28.971 294.5 27.4968 294.5 25.2257C294.5 22.2375 296.1 19.6875 297.94 19.6875C298.78 19.6875 299.38 20.0859 299.98 20.9226L300.46 17.7351H302.54L300.9 28.8515ZM297.74 26.7398C298.74 26.7398 299.42 25.5046 299.42 23.7117C299.42 22.5562 299.02 21.9585 298.3 21.9585C297.34 21.9585 296.66 23.1937 296.66 24.9867C296.66 26.1421 297.02 26.7398 297.74 26.7398Z" fill="#74698C"/>
<path fill-rule="evenodd" clip-rule="evenodd" d="M253.38 28.8117C252.66 29.0507 251.98 29.1703 251.22 29.1703C248.86 29.1703 247.62 27.7757 247.62 25.1062C247.62 22.0382 249.18 19.7273 251.3 19.7273C253.06 19.7273 254.14 21.0023 254.14 23.0343C254.14 23.6718 254.06 24.3492 253.86 25.2656H249.66C249.62 25.425 249.62 25.4648 249.62 25.5445C249.62 26.5804 250.26 27.0984 251.5 27.0984C252.26 27.0984 252.94 26.8992 253.7 26.5406L253.38 28.8117ZM252.18 23.4726C252.18 23.2734 252.22 23.114 252.22 23.0343C252.22 22.3171 251.86 21.8789 251.22 21.8789C250.54 21.8789 250.06 22.4367 249.86 23.5124H252.18V23.4726Z" fill="#74698C"/>
<path fill-rule="evenodd" clip-rule="evenodd" d="M278.58 28.8117C277.86 29.0507 277.18 29.1703 276.42 29.1703C274.02 29.1703 272.82 27.7757 272.82 25.1062C272.82 22.0382 274.38 19.7273 276.5 19.7273C278.26 19.7273 279.38 21.0023 279.38 23.0343C279.38 23.6718 279.3 24.3492 279.1 25.2656H274.86C274.82 25.425 274.82 25.4648 274.82 25.5445C274.82 26.5804 275.46 27.0984 276.7 27.0984C277.46 27.0984 278.14 26.8992 278.9 26.5406L278.58 28.8117ZM277.38 23.4726C277.42 23.2734 277.42 23.114 277.42 23.0343C277.42 22.3171 277.06 21.8789 276.42 21.8789C275.74 21.8789 275.26 22.4367 275.06 23.5124H277.38V23.4726Z" fill="#74698C"/>
<path fill-rule="evenodd" clip-rule="evenodd" d="M308.1 28.8117C307.38 29.0507 306.66 29.1703 305.94 29.1703C303.58 29.1703 302.34 27.7757 302.34 25.1062C302.34 22.0382 303.94 19.7273 306.06 19.7273C307.82 19.7273 308.9 21.0023 308.9 23.0343C308.9 23.6718 308.82 24.3492 308.62 25.2656H304.42C304.38 25.425 304.38 25.4648 304.38 25.5445C304.38 26.5804 305.02 27.0984 306.26 27.0984C307.02 27.0984 307.7 26.8992 308.46 26.5406L308.1 28.8117ZM306.9 23.4726C306.9 23.2734 306.94 23.114 306.94 23.0343C306.94 22.3171 306.58 21.8789 305.94 21.8789C305.26 21.8789 304.78 22.4367 304.58 23.5124H306.9V23.4726Z" fill="#74698C"/>
<path fill-rule="evenodd" clip-rule="evenodd" d="M247.1 20.2454C246.7 19.9665 246.1 19.7274 245.34 19.7274C244.46 19.7274 243.82 19.9266 243.82 20.8032C243.82 22.3969 246.94 21.7993 246.94 25.2258C246.94 28.3336 244.9 29.1704 243.02 29.1704C242.18 29.1704 241.22 28.8915 240.54 28.5727L241.06 26.3016C241.5 26.7 242.34 26.9391 243.06 26.9391C243.74 26.9391 244.78 26.7399 244.78 25.5844C244.78 23.7516 241.66 24.429 241.66 21.2415C241.66 18.3329 243.5 17.4563 245.26 17.4563C246.26 17.4563 247.18 17.6157 247.74 17.9743L247.1 20.2454Z" fill="#74698C"/>
<path fill-rule="evenodd" clip-rule="evenodd" d="M259.58 28.8116C259.14 29.0108 258.54 29.1702 257.7 29.1702C255.86 29.1702 254.7 27.3374 254.7 25.0663C254.7 22.1178 256.38 19.8069 258.82 19.8069C259.34 19.8069 260.18 20.0459 260.82 20.4045L260.34 22.5561C259.86 22.2374 259.38 22.078 258.9 22.078C257.78 22.078 256.94 23.1139 256.94 24.9467C256.94 26.0225 257.54 26.8991 258.46 26.8991C259.02 26.8991 259.42 26.7795 259.86 26.5006L259.58 28.8116Z" fill="#74698C"/>
<path fill-rule="evenodd" clip-rule="evenodd" d="M267.5 26.5406C267.38 27.2976 267.3 28.0546 267.22 28.8515H265.18L265.34 27.4171H265.3C264.66 28.4132 264.02 29.0906 262.82 29.0906C261.54 29.0906 260.86 27.7359 260.86 26.0226C260.86 25.425 260.9 25.0664 261.02 24.15L261.58 19.9664H263.86L263.3 24.15C263.22 24.5882 263.14 25.0664 263.14 25.5046C263.14 26.0226 263.38 26.5804 264.02 26.5406C264.94 26.5406 265.5 25.425 265.66 24.0703L266.3 19.9265H268.5L267.5 26.5406Z" fill="#74698C"/>
<path fill-rule="evenodd" clip-rule="evenodd" d="M310.22 28.7717H309.86V27.2975H309.38V26.9788H310.7V27.2975H310.22V28.7717Z" fill="#74698C"/>
<path fill-rule="evenodd" clip-rule="evenodd" d="M312.5 28.7717H312.18V27.2577L311.86 28.7717H311.54L311.22 27.2577V28.7717H310.9V26.9788H311.42L311.7 28.4131H311.74L312.02 26.9788H312.5V28.7717Z" fill="#74698C"/>
<g clip-path="url(#clip0)">
<path d="M383.745 10.2773C382.451 10.2773 381.233 10.2666 380.026 10.288C379.732 10.288 379.612 10.1272 379.471 9.9449C377.481 7.46813 374.914 5.97778 371.727 5.5489C366.909 4.89486 362.08 7.32874 359.829 11.5532C356.011 18.694 360.46 27.3788 368.573 28.4617C373.272 29.0836 377.046 27.3359 379.83 23.5618C380.134 23.1436 380.428 23.0149 380.928 23.0149C395.535 23.0257 410.141 23.0257 424.747 23.0257C426.368 23.0257 427.456 24.0335 427.586 25.6418C427.662 26.6926 427.662 26.6926 426.618 26.6926C411.87 26.6926 397.112 26.6926 382.364 26.6819C381.961 26.6819 381.7 26.7998 381.429 27.0786C378.329 30.3809 374.49 32.0214 369.933 31.9999C362.537 31.9571 356.044 26.2744 355.13 19.0478C354.108 11.0278 359.285 3.90844 367.312 2.27871C373.685 0.992072 380.58 4.2301 383.571 9.92345C383.625 10.02 383.669 10.1164 383.745 10.2773Z" fill="#74698C"/>
<path d="M364.386 15.5739C364.386 16.2279 364.386 16.8069 364.386 17.3966C364.386 18.6618 364.375 19.9377 364.397 21.2029C364.408 21.5567 364.288 21.6532 363.94 21.6425C363.103 21.621 362.276 21.621 361.439 21.6425C361.156 21.6425 361.058 21.5567 361.058 21.2779C361.069 18.1043 361.069 14.9198 361.058 11.7461C361.058 11.4674 361.156 11.3816 361.439 11.3816C362.439 11.3923 363.429 11.3709 364.43 11.3923C365.3 11.4138 365.974 11.9606 366.235 12.8398C366.648 14.2229 367.04 15.6168 367.453 16.9999C367.497 17.1393 367.475 17.3752 367.671 17.3859C367.877 17.3966 367.855 17.1607 367.899 17.0213C368.301 15.6704 368.682 14.3194 369.084 12.9684C369.411 11.8534 370.042 11.403 371.227 11.403C372.119 11.403 373 11.4138 373.892 11.3923C374.207 11.3816 374.294 11.4781 374.283 11.789C374.272 14.952 374.272 18.115 374.283 21.2672C374.283 21.5674 374.207 21.6747 373.892 21.6639C373.054 21.6425 372.228 21.6318 371.39 21.6639C370.999 21.6747 370.944 21.5138 370.944 21.1922C370.955 19.6053 370.944 18.0185 370.944 16.4209C370.944 16.2922 370.955 16.1743 370.944 16.0456C370.922 15.917 371.031 15.7133 370.835 15.6811C370.629 15.6489 370.661 15.8741 370.629 15.992C370.172 17.418 369.726 18.8548 369.28 20.2808C369.139 20.7204 369.106 21.2887 368.802 21.5567C368.465 21.8462 367.866 21.6425 367.388 21.6532C366.485 21.6639 366.485 21.6532 366.202 20.7955C365.713 19.2301 365.213 17.6647 364.723 16.0992C364.691 15.9063 364.701 15.7133 364.386 15.5739Z" fill="#74698C"/>
<path d="M390.815 21.6317C389.553 21.6317 388.422 21.621 387.28 21.6424C386.997 21.6424 386.91 21.4816 386.801 21.2886C386.388 20.4952 385.942 19.7232 385.551 18.9191C385.355 18.5116 385.105 18.3615 384.637 18.383C383.723 18.4259 383.723 18.3937 383.723 19.2836C383.723 19.9269 383.713 20.5703 383.734 21.2136C383.745 21.5352 383.658 21.6532 383.31 21.6424C382.462 21.621 381.603 21.621 380.754 21.6424C380.471 21.6424 380.374 21.5567 380.384 21.2779C380.395 19.6482 380.395 18.0292 380.384 16.3994C380.384 16.0778 380.515 16.0134 380.798 16.0134C383.93 16.0241 387.062 16.0241 390.195 16.0134C390.586 16.0134 390.564 16.1528 390.423 16.4209C390.086 17.0749 389.618 17.6324 388.944 17.9327C388.476 18.1364 388.541 18.3079 388.781 18.651C389.455 19.5946 390.097 20.5703 390.815 21.6317Z" fill="#74698C"/>
<path d="M383.908 11.371C385.028 11.371 386.149 11.3603 387.269 11.371C389.27 11.3924 390.869 13.0543 390.793 15.0164C390.782 15.4131 390.695 15.6276 390.205 15.6061C388.291 15.5525 386.366 15.6812 384.452 15.5418C382.342 15.381 380.537 13.8263 379.993 11.7999C379.906 11.4568 379.949 11.3603 380.319 11.371C381.526 11.3817 382.723 11.371 383.908 11.371Z" fill="#74698C"/>
<path d="M375.686 16.4853C375.686 14.9735 375.708 13.451 375.675 11.9392C375.664 11.446 375.817 11.3388 376.284 11.3602C377.046 11.4031 377.807 11.3817 378.568 11.3602C378.916 11.3495 379.047 11.4353 379.036 11.7998C379.025 14.9199 379.025 18.04 379.036 21.1708C379.036 21.5568 378.895 21.6426 378.536 21.6318C377.774 21.6104 377.013 21.5997 376.252 21.6318C375.806 21.6533 375.664 21.5353 375.675 21.085C375.697 19.5518 375.686 18.0185 375.686 16.4853Z" fill="#74698C"/>
<path d="M410.739 18.2221C410.739 17.3107 410.75 16.3994 410.728 15.488C410.718 15.1878 410.815 15.0913 411.131 15.0913C412.197 15.1127 413.263 15.1127 414.339 15.0913C414.687 15.0806 414.763 15.1878 414.763 15.5095C414.763 16.4423 414.774 16.4423 413.828 16.4423C413.556 16.4423 413.284 16.4423 413.012 16.4423C412.392 16.4423 412.131 16.839 412.349 17.418C412.414 17.5895 412.534 17.5573 412.654 17.5573C413.067 17.5681 413.491 17.5788 413.904 17.5573C414.187 17.5466 414.274 17.6324 414.285 17.9219C414.318 18.919 414.328 18.919 413.339 18.919C413.252 18.919 413.154 18.919 413.067 18.919C412.338 18.919 412.197 19.112 412.338 19.8411C412.382 20.0877 412.545 20.0448 412.697 20.0448C413.273 20.0448 413.861 20.0663 414.437 20.0448C414.763 20.0341 414.872 20.1199 414.872 20.4523C414.872 21.3744 414.894 21.3744 413.926 21.3744C413.11 21.3744 412.295 21.3744 411.479 21.3744C410.62 21.3744 410.75 21.428 410.739 20.6774C410.728 19.8626 410.739 19.0477 410.739 18.2221Z" fill="#74698C"/>
<path d="M401.19 15.0164C401.952 15.0271 402.615 15.1986 403.235 15.5846C403.539 15.7776 403.703 15.9706 403.398 16.2815C403.376 16.303 403.354 16.3459 403.344 16.3673C402.941 17.0106 402.941 17.0106 402.267 16.6783C401.495 16.303 400.592 16.378 400.07 16.8605C399.515 17.3645 399.363 18.2544 399.711 19.0478C400.179 20.1307 401.516 20.4202 402.593 19.5946C402.963 19.3159 403.093 19.3909 403.311 19.7233C403.887 20.5703 403.887 20.581 402.963 21.0742C401.451 21.8891 399.439 21.5031 398.504 20.2272C397.536 18.9084 397.732 16.9249 398.939 15.8312C399.581 15.2522 400.364 15.0271 401.19 15.0164Z" fill="#74698C"/>
<path d="M409.173 19.3052C409.293 19.4767 409.412 19.6268 409.532 19.7876C410.054 20.5167 410.043 20.5489 409.271 21.0099C407.694 21.9535 405.519 21.5246 404.584 20.0771C403.637 18.6082 404.029 16.5496 405.443 15.5846C406.585 14.8127 408.325 14.8234 409.445 15.5954C409.739 15.7991 409.858 15.9814 409.586 16.2708C409.576 16.2816 409.565 16.303 409.554 16.3137C409.412 16.5389 409.315 16.8606 409.108 16.9678C408.858 17.0964 408.662 16.7641 408.423 16.6568C407.672 16.3245 406.791 16.3888 406.269 16.8498C405.736 17.3323 405.551 18.1793 405.834 18.9299C406.161 19.8305 407.085 20.2594 408.042 19.9699C408.466 19.852 408.803 19.6054 409.173 19.3052Z" fill="#74698C"/>
<path d="M425.998 14.9092C426.847 14.9092 427.706 14.9199 428.554 14.8984C428.859 14.8877 429 14.9413 429 15.3059C429.011 16.3888 429.022 16.3888 427.901 16.3888C426.825 16.3888 426.825 16.3888 426.825 17.4395C426.825 18.7798 426.814 20.12 426.836 21.4603C426.836 21.7927 426.738 21.8784 426.411 21.8784C425.095 21.8892 425.095 21.8999 425.095 20.624C425.095 19.3588 425.085 18.0936 425.106 16.8177C425.117 16.4638 424.998 16.3352 424.65 16.3781C424.421 16.3995 424.182 16.3781 423.943 16.3781C422.92 16.3781 422.757 16.1636 422.953 15.1343C423.007 14.8663 423.17 14.8984 423.344 14.8984C424.225 14.9092 425.117 14.9092 425.998 14.9092Z" fill="#74698C"/>
<path d="M415.329 15.0915C416.993 15.0915 418.614 15.07 420.223 15.1022C421.43 15.1236 422.398 16.1208 422.453 17.3109C422.464 17.6755 422.42 17.9113 421.931 17.8899C420.647 17.8148 419.353 17.9864 418.081 17.7934C416.645 17.579 415.536 16.4853 415.329 15.0915Z" fill="#74698C"/>
<path d="M419.201 18.1042C420.125 18.1042 421.05 18.1257 421.974 18.0935C422.431 18.0828 422.42 18.2436 422.224 18.5438C421.822 19.1657 421.235 19.4659 420.495 19.4767C419.625 19.4874 418.755 19.4874 417.885 19.4767C417.58 19.4659 417.461 19.5517 417.482 19.8626C417.504 20.2701 417.482 20.6882 417.493 21.0957C417.493 21.3208 417.417 21.3959 417.178 21.4173C415.927 21.5245 415.927 21.5245 415.927 20.3022C415.927 19.6911 415.949 19.0907 415.916 18.4795C415.905 18.1686 416.014 18.0935 416.319 18.0935C417.276 18.115 418.244 18.1042 419.201 18.1042Z" fill="#74698C"/>
<path fill-rule="evenodd" clip-rule="evenodd" d="M395.915 20.656C395.981 21.2136 396.22 21.5674 396.785 21.3851H397.155C397.764 21.3851 397.764 21.3744 397.568 20.7954L397.568 20.7949C397.035 19.2404 396.503 17.6859 395.959 16.1421C395.6 15.1232 395.579 15.1226 394.557 15.0941C394.525 15.0932 394.492 15.0923 394.458 15.0914C394.056 15.0806 393.892 15.2307 393.773 15.5846C393.434 16.5935 393.086 17.598 392.738 18.6038C392.539 19.1799 392.339 19.7564 392.141 20.3344C391.772 21.3851 391.782 21.3851 392.935 21.3851C393.229 21.3851 393.436 21.3744 393.534 21.0206C393.802 20.0984 393.816 20.0984 394.783 20.0985C394.794 20.0985 394.806 20.0985 394.817 20.0985C394.853 20.0985 394.889 20.1009 394.926 20.1033C394.998 20.108 395.071 20.1128 395.143 20.0985C395.589 20.0235 395.861 20.1843 395.915 20.656ZM395.011 17.5518C394.936 17.2829 394.858 17.0045 394.773 16.7104C394.632 17.2143 394.512 17.6432 394.393 18.0721C394.274 18.4751 394.215 18.6735 394.288 18.7699C394.364 18.8684 394.578 18.8602 395.013 18.8548C395.35 18.8548 395.35 18.7261 395.274 18.4795C395.185 18.1769 395.1 17.8711 395.011 17.5518Z" fill="#74698C"/>
</g>
<defs>
<clipPath id="clip0">
<rect width="75" height="33" fill="white" transform="translate(354)"/>
</clipPath>
</defs>
</svg>
