<svg width="24" height="24" viewBox="0 0 24 24" fill="none" xmlns="http://www.w3.org/2000/svg">
<path d="M18.0385 16H16.6187C16.0811 16 15.9157 15.5587 14.9508 14.548C14.1099 13.7082 13.7377 13.5943 13.531 13.5943C13.2415 13.5943 13.1588 13.6797 13.1588 14.0925V15.4164C13.1588 15.7722 13.0485 15.9858 12.1388 15.9858C10.6363 15.9858 8.96834 15.0463 7.79666 13.2954C6.03226 10.7331 5.5498 8.81139 5.5498 8.41281C5.5498 8.19929 5.63251 8 6.03226 8H7.45205C7.81045 8 7.94829 8.17082 8.08614 8.5694C8.78914 10.6619 9.96082 12.4982 10.4433 12.4982C10.6225 12.4982 10.7052 12.4128 10.7052 11.9431V9.77936C10.65 8.78292 10.14 8.69751 10.14 8.34164C10.14 8.17082 10.2779 8 10.4984 8H12.7315C13.0347 8 13.145 8.17082 13.145 8.54093V11.4591C13.145 11.7722 13.2829 11.8861 13.3656 11.8861C13.5448 11.8861 13.6964 11.7722 14.0272 11.4306C15.0473 10.2491 15.7778 8.42705 15.7778 8.42705C15.8743 8.21352 16.0397 8.01423 16.3981 8.01423H17.8179C18.2452 8.01423 18.3417 8.24199 18.2452 8.55516C18.0661 9.40925 16.3292 11.9431 16.3292 11.9431C16.1776 12.1993 16.1224 12.3132 16.3292 12.5979C16.4808 12.8114 16.9771 13.2527 17.3079 13.6512C17.9144 14.363 18.3831 14.9609 18.5072 15.3737C18.645 15.7865 18.4382 16 18.0385 16Z" fill="#03EE65"/>
<rect x="0.5" y="0.5" width="23" height="23" rx="3.5" stroke="#03EE65"/>
</svg>
