<svg width="24" height="24" viewBox="0 0 24 24" fill="none" xmlns="http://www.w3.org/2000/svg">
<rect x="0.5" y="0.5" width="23" height="23" rx="3.5" fill="#807CFA"/>
<path fill-rule="evenodd" clip-rule="evenodd" d="M24 12.1323V11.9997V11.8675C18.6863 11.7067 16.2564 11.5742 14.3184 9.68126C12.4261 7.74366 12.2929 5.31386 12.1326 0H12H11.8673C11.707 5.31386 11.5739 7.74366 9.6815 9.68126C7.7435 11.5742 5.3136 11.7067 0 11.8675V11.9997V12.1323C5.3136 12.293 7.7435 12.4256 9.6815 14.3181C11.5739 16.2561 11.707 18.6859 11.8673 23.9998H12H12.1326C12.2929 18.6859 12.4261 16.2561 14.3184 14.3181C16.2564 12.4256 18.6863 12.293 24 12.1323Z" fill="#03EE65"/>
<rect x="0.5" y="0.5" width="23" height="23" rx="3.5" stroke="#03EE65"/>
</svg>
